<mxfile host="app.diagrams.net" modified="2024-02-12T16:51:24.369Z" agent="Mozilla/5.0 (Windows NT 10.0; Win64; x64) AppleWebKit/537.36 (KHTML, like Gecko) Chrome/121.0.0.0 Safari/537.36 Edg/121.0.0.0" version="23.1.2" etag="_Oc-lVj20X6t32uBPnuE" type="github">
  <diagram name="Page-1" id="9irE826xFU5V1YvP1D2V">
    <mxGraphModel>
      <root>
        <mxCell id="0" />
        <mxCell id="1" parent="0" />
      </root>
    </mxGraphModel>
  </diagram>
</mxfile>
